<?xml version="1.0" encoding="UTF-8"?>
<svg xmlns="http://www.w3.org/2000/svg" xmlns:xlink="http://www.w3.org/1999/xlink" width="256pt" height="223pt" viewBox="0 0 256 223" version="1.1">
<g id="surface1">
<path style="fill:none;stroke-width:7.496;stroke-linecap:round;stroke-linejoin:round;stroke:rgb(0%,0%,0%);stroke-opacity:1;stroke-miterlimit:10;" d="M 80.625 2151.953125 L 155.585938 2151.953125 L 118.125 2087.03125 L 193.085938 2087.03125 L 155.585938 2151.953125 L 230.546875 2151.953125 L 193.085938 2087.03125 L 155.585938 2022.109375 L 230.546875 2022.109375 L 193.085938 1957.1875 L 268.046875 1957.1875 L 230.546875 2022.109375 L 305.507812 2022.109375 L 268.046875 2087.03125 L 230.546875 2151.953125 L 305.507812 2151.953125 L 268.046875 2087.03125 L 343.007812 2087.03125 L 305.507812 2151.953125 L 380.46875 2151.953125 L 343.007812 2087.03125 L 305.507812 2022.109375 L 268.046875 1957.1875 L 230.546875 1892.265625 L 305.507812 1892.265625 L 268.046875 1827.34375 L 343.007812 1827.34375 L 305.507812 1892.265625 L 380.46875 1892.265625 L 343.007812 1827.34375 L 305.507812 1762.421875 L 380.46875 1762.421875 L 343.007812 1697.539062 L 417.96875 1697.539062 L 380.46875 1762.421875 L 455.429688 1762.421875 L 417.96875 1827.34375 L 380.46875 1892.265625 L 455.429688 1892.265625 L 417.96875 1827.34375 L 492.929688 1827.34375 L 455.429688 1892.265625 L 530.390625 1892.265625 " transform="matrix(0.1,0,0,-0.1,0,223)"/>
<path style="fill:none;stroke-width:7.496;stroke-linecap:round;stroke-linejoin:round;stroke:rgb(0%,0%,0%);stroke-opacity:1;stroke-miterlimit:10;" d="M 530.390625 1892.265625 L 492.929688 1957.1875 L 455.429688 2022.109375 L 417.96875 2087.03125 L 380.46875 2151.953125 L 455.429688 2151.953125 L 417.96875 2087.03125 L 492.929688 2087.03125 L 455.429688 2151.953125 L 530.390625 2151.953125 L 492.929688 2087.03125 L 455.429688 2022.109375 L 530.390625 2022.109375 L 492.929688 1957.1875 L 567.890625 1957.1875 L 530.390625 2022.109375 L 605.351562 2022.109375 L 567.890625 2087.03125 L 530.390625 2151.953125 L 605.351562 2151.953125 L 567.890625 2087.03125 L 642.851562 2087.03125 L 605.351562 2151.953125 L 680.3125 2151.953125 L 642.851562 2087.03125 L 605.351562 2022.109375 L 567.890625 1957.1875 L 530.390625 1892.265625 L 492.929688 1827.34375 L 455.429688 1762.421875 L 417.96875 1697.539062 L 380.46875 1632.617188 L 455.429688 1632.617188 L 417.96875 1567.695312 L 492.929688 1567.695312 L 455.429688 1632.617188 L 530.390625 1632.617188 L 492.929688 1567.695312 L 455.429688 1502.773438 L 530.390625 1502.773438 L 492.929688 1437.851562 L 567.890625 1437.851562 L 530.390625 1502.773438 " transform="matrix(0.1,0,0,-0.1,0,223)"/>
<path style="fill:none;stroke-width:7.496;stroke-linecap:round;stroke-linejoin:round;stroke:rgb(0%,0%,0%);stroke-opacity:1;stroke-miterlimit:10;" d="M 530.390625 1502.773438 L 605.351562 1502.773438 L 567.890625 1567.695312 L 530.390625 1632.617188 L 605.351562 1632.617188 L 567.890625 1567.695312 L 642.851562 1567.695312 L 605.351562 1632.617188 L 680.3125 1632.617188 L 642.851562 1567.695312 L 605.351562 1502.773438 L 567.890625 1437.851562 L 530.390625 1372.929688 L 605.351562 1372.929688 L 567.890625 1308.007812 L 642.851562 1308.007812 L 605.351562 1372.929688 L 680.3125 1372.929688 L 642.851562 1308.007812 L 605.351562 1243.085938 L 680.3125 1243.085938 L 642.851562 1178.164062 L 717.8125 1178.164062 L 680.3125 1243.085938 L 755.273438 1243.085938 L 717.8125 1308.007812 L 680.3125 1372.929688 L 755.273438 1372.929688 L 717.8125 1308.007812 L 792.773438 1308.007812 L 755.273438 1372.929688 L 830.234375 1372.929688 L 792.773438 1437.851562 L 755.273438 1502.773438 L 717.8125 1567.695312 L 680.3125 1632.617188 L 755.273438 1632.617188 L 717.8125 1567.695312 L 792.773438 1567.695312 L 755.273438 1632.617188 L 830.234375 1632.617188 L 792.773438 1567.695312 L 755.273438 1502.773438 " transform="matrix(0.1,0,0,-0.1,0,223)"/>
<path style="fill:none;stroke-width:7.496;stroke-linecap:round;stroke-linejoin:round;stroke:rgb(0%,0%,0%);stroke-opacity:1;stroke-miterlimit:10;" d="M 755.273438 1502.773438 L 830.234375 1502.773438 L 792.773438 1437.851562 L 867.734375 1437.851562 L 830.234375 1502.773438 L 905.195312 1502.773438 L 867.734375 1567.695312 L 830.234375 1632.617188 L 905.195312 1632.617188 L 867.734375 1567.695312 L 942.695312 1567.695312 L 905.195312 1632.617188 L 980.15625 1632.617188 L 942.695312 1697.539062 L 905.195312 1762.421875 L 867.734375 1827.34375 L 830.234375 1892.265625 L 792.773438 1957.1875 L 755.273438 2022.109375 L 717.8125 2087.03125 L 680.3125 2151.953125 L 755.273438 2151.953125 L 717.8125 2087.03125 L 792.773438 2087.03125 L 755.273438 2151.953125 L 830.234375 2151.953125 L 792.773438 2087.03125 L 755.273438 2022.109375 L 830.234375 2022.109375 L 792.773438 1957.1875 L 867.734375 1957.1875 L 830.234375 2022.109375 L 905.195312 2022.109375 L 867.734375 2087.03125 L 830.234375 2151.953125 L 905.195312 2151.953125 L 867.734375 2087.03125 L 942.695312 2087.03125 L 905.195312 2151.953125 L 980.15625 2151.953125 L 942.695312 2087.03125 L 905.195312 2022.109375 L 867.734375 1957.1875 " transform="matrix(0.1,0,0,-0.1,0,223)"/>
<path style="fill:none;stroke-width:7.496;stroke-linecap:round;stroke-linejoin:round;stroke:rgb(0%,0%,0%);stroke-opacity:1;stroke-miterlimit:10;" d="M 867.734375 1957.1875 L 830.234375 1892.265625 L 905.195312 1892.265625 L 867.734375 1827.34375 L 942.695312 1827.34375 L 905.195312 1892.265625 L 980.15625 1892.265625 L 942.695312 1827.34375 L 905.195312 1762.421875 L 980.15625 1762.421875 L 942.695312 1697.539062 L 1017.65625 1697.539062 L 980.15625 1762.421875 L 1055.117188 1762.421875 L 1017.65625 1827.34375 L 980.15625 1892.265625 L 1055.117188 1892.265625 L 1017.65625 1827.34375 L 1092.617188 1827.34375 L 1055.117188 1892.265625 L 1130.078125 1892.265625 L 1092.617188 1957.1875 L 1055.117188 2022.109375 L 1017.65625 2087.03125 L 980.15625 2151.953125 L 1055.117188 2151.953125 L 1017.65625 2087.03125 L 1092.617188 2087.03125 L 1055.117188 2151.953125 L 1130.078125 2151.953125 L 1092.617188 2087.03125 L 1055.117188 2022.109375 L 1130.078125 2022.109375 L 1092.617188 1957.1875 L 1167.578125 1957.1875 L 1130.078125 2022.109375 L 1205.039062 2022.109375 L 1167.578125 2087.03125 L 1130.078125 2151.953125 L 1205.039062 2151.953125 L 1167.578125 2087.03125 L 1242.539062 2087.03125 L 1205.039062 2151.953125 " transform="matrix(0.1,0,0,-0.1,0,223)"/>
<path style="fill:none;stroke-width:7.496;stroke-linecap:round;stroke-linejoin:round;stroke:rgb(0%,0%,0%);stroke-opacity:1;stroke-miterlimit:10;" d="M 1205.039062 2151.953125 L 1280 2151.953125 L 1242.539062 2087.03125 L 1205.039062 2022.109375 L 1167.578125 1957.1875 L 1130.078125 1892.265625 L 1092.617188 1827.34375 L 1055.117188 1762.421875 L 1017.65625 1697.539062 L 980.15625 1632.617188 L 942.695312 1567.695312 L 905.195312 1502.773438 L 867.734375 1437.851562 L 830.234375 1372.929688 L 792.773438 1308.007812 L 755.273438 1243.085938 L 717.8125 1178.164062 L 680.3125 1113.28125 L 755.273438 1113.28125 L 717.8125 1048.359375 L 792.773438 1048.359375 L 755.273438 1113.28125 L 830.234375 1113.28125 L 792.773438 1048.359375 L 755.273438 983.4375 L 830.234375 983.4375 L 792.773438 918.515625 L 867.734375 918.515625 L 830.234375 983.4375 L 905.195312 983.4375 L 867.734375 1048.359375 L 830.234375 1113.28125 L 905.195312 1113.28125 L 867.734375 1048.359375 L 942.695312 1048.359375 L 905.195312 1113.28125 L 980.15625 1113.28125 L 942.695312 1048.359375 L 905.195312 983.4375 L 867.734375 918.515625 L 830.234375 853.59375 L 905.195312 853.59375 L 867.734375 788.671875 " transform="matrix(0.1,0,0,-0.1,0,223)"/>
<path style="fill:none;stroke-width:7.496;stroke-linecap:round;stroke-linejoin:round;stroke:rgb(0%,0%,0%);stroke-opacity:1;stroke-miterlimit:10;" d="M 867.734375 788.671875 L 942.695312 788.671875 L 905.195312 853.59375 L 980.15625 853.59375 L 942.695312 788.671875 L 905.195312 723.75 L 980.15625 723.75 L 942.695312 658.867188 L 1017.65625 658.867188 L 980.15625 723.75 L 1055.117188 723.75 L 1017.65625 788.671875 L 980.15625 853.59375 L 1055.117188 853.59375 L 1017.65625 788.671875 L 1092.617188 788.671875 L 1055.117188 853.59375 L 1130.078125 853.59375 L 1092.617188 918.515625 L 1055.117188 983.4375 L 1017.65625 1048.359375 L 980.15625 1113.28125 L 1055.117188 1113.28125 L 1017.65625 1048.359375 L 1092.617188 1048.359375 L 1055.117188 1113.28125 L 1130.078125 1113.28125 L 1092.617188 1048.359375 L 1055.117188 983.4375 L 1130.078125 983.4375 L 1092.617188 918.515625 L 1167.578125 918.515625 L 1130.078125 983.4375 L 1205.039062 983.4375 L 1167.578125 1048.359375 L 1130.078125 1113.28125 L 1205.039062 1113.28125 L 1167.578125 1048.359375 L 1242.539062 1048.359375 L 1205.039062 1113.28125 L 1280 1113.28125 L 1242.539062 1048.359375 L 1205.039062 983.4375 " transform="matrix(0.1,0,0,-0.1,0,223)"/>
<path style="fill:none;stroke-width:7.496;stroke-linecap:round;stroke-linejoin:round;stroke:rgb(0%,0%,0%);stroke-opacity:1;stroke-miterlimit:10;" d="M 1205.039062 983.4375 L 1167.578125 918.515625 L 1130.078125 853.59375 L 1092.617188 788.671875 L 1055.117188 723.75 L 1017.65625 658.867188 L 980.15625 593.945312 L 1055.117188 593.945312 L 1017.65625 529.023438 L 1092.617188 529.023438 L 1055.117188 593.945312 L 1130.078125 593.945312 L 1092.617188 529.023438 L 1055.117188 464.101562 L 1130.078125 464.101562 L 1092.617188 399.179688 L 1167.578125 399.179688 L 1130.078125 464.101562 L 1205.039062 464.101562 L 1167.578125 529.023438 L 1130.078125 593.945312 L 1205.039062 593.945312 L 1167.578125 529.023438 L 1242.539062 529.023438 L 1205.039062 593.945312 L 1280 593.945312 L 1242.539062 529.023438 L 1205.039062 464.101562 L 1167.578125 399.179688 L 1130.078125 334.257812 L 1205.039062 334.257812 L 1167.578125 269.335938 L 1242.539062 269.335938 L 1205.039062 334.257812 L 1280 334.257812 L 1242.539062 269.335938 L 1205.039062 204.414062 L 1280 204.414062 L 1242.539062 139.492188 L 1317.460938 139.492188 L 1280 204.414062 L 1354.960938 204.414062 L 1317.460938 269.335938 " transform="matrix(0.1,0,0,-0.1,0,223)"/>
<path style="fill:none;stroke-width:7.496;stroke-linecap:round;stroke-linejoin:round;stroke:rgb(0%,0%,0%);stroke-opacity:1;stroke-miterlimit:10;" d="M 1317.460938 269.335938 L 1280 334.257812 L 1354.960938 334.257812 L 1317.460938 269.335938 L 1392.421875 269.335938 L 1354.960938 334.257812 L 1429.921875 334.257812 L 1392.421875 399.179688 L 1354.960938 464.101562 L 1317.460938 529.023438 L 1280 593.945312 L 1354.960938 593.945312 L 1317.460938 529.023438 L 1392.421875 529.023438 L 1354.960938 593.945312 L 1429.921875 593.945312 L 1392.421875 529.023438 L 1354.960938 464.101562 L 1429.921875 464.101562 L 1392.421875 399.179688 L 1467.382812 399.179688 L 1429.921875 464.101562 L 1504.882812 464.101562 L 1467.382812 529.023438 L 1429.921875 593.945312 L 1504.882812 593.945312 L 1467.382812 529.023438 L 1542.34375 529.023438 L 1504.882812 593.945312 L 1579.84375 593.945312 L 1542.34375 658.867188 L 1504.882812 723.75 L 1467.382812 788.671875 L 1429.921875 853.59375 L 1392.421875 918.515625 L 1354.960938 983.4375 L 1317.460938 1048.359375 L 1280 1113.28125 L 1354.960938 1113.28125 L 1317.460938 1048.359375 L 1392.421875 1048.359375 L 1354.960938 1113.28125 L 1429.921875 1113.28125 " transform="matrix(0.1,0,0,-0.1,0,223)"/>
<path style="fill:none;stroke-width:7.496;stroke-linecap:round;stroke-linejoin:round;stroke:rgb(0%,0%,0%);stroke-opacity:1;stroke-miterlimit:10;" d="M 1429.921875 1113.28125 L 1392.421875 1048.359375 L 1354.960938 983.4375 L 1429.921875 983.4375 L 1392.421875 918.515625 L 1467.382812 918.515625 L 1429.921875 983.4375 L 1504.882812 983.4375 L 1467.382812 1048.359375 L 1429.921875 1113.28125 L 1504.882812 1113.28125 L 1467.382812 1048.359375 L 1542.34375 1048.359375 L 1504.882812 1113.28125 L 1579.84375 1113.28125 L 1542.34375 1048.359375 L 1504.882812 983.4375 L 1467.382812 918.515625 L 1429.921875 853.59375 L 1504.882812 853.59375 L 1467.382812 788.671875 L 1542.34375 788.671875 L 1504.882812 853.59375 L 1579.84375 853.59375 L 1542.34375 788.671875 L 1504.882812 723.75 L 1579.84375 723.75 L 1542.34375 658.867188 L 1617.304688 658.867188 L 1579.84375 723.75 L 1654.804688 723.75 L 1617.304688 788.671875 L 1579.84375 853.59375 L 1654.804688 853.59375 L 1617.304688 788.671875 L 1692.265625 788.671875 L 1654.804688 853.59375 L 1729.765625 853.59375 L 1692.265625 918.515625 L 1654.804688 983.4375 L 1617.304688 1048.359375 L 1579.84375 1113.28125 L 1654.804688 1113.28125 " transform="matrix(0.1,0,0,-0.1,0,223)"/>
<path style="fill:none;stroke-width:7.496;stroke-linecap:round;stroke-linejoin:round;stroke:rgb(0%,0%,0%);stroke-opacity:1;stroke-miterlimit:10;" d="M 1654.804688 1113.28125 L 1617.304688 1048.359375 L 1692.265625 1048.359375 L 1654.804688 1113.28125 L 1729.765625 1113.28125 L 1692.265625 1048.359375 L 1654.804688 983.4375 L 1729.765625 983.4375 L 1692.265625 918.515625 L 1767.226562 918.515625 L 1729.765625 983.4375 L 1804.726562 983.4375 L 1767.226562 1048.359375 L 1729.765625 1113.28125 L 1804.726562 1113.28125 L 1767.226562 1048.359375 L 1842.1875 1048.359375 L 1804.726562 1113.28125 L 1879.6875 1113.28125 L 1842.1875 1178.164062 L 1804.726562 1243.085938 L 1767.226562 1308.007812 L 1729.765625 1372.929688 L 1692.265625 1437.851562 L 1654.804688 1502.773438 L 1617.304688 1567.695312 L 1579.84375 1632.617188 L 1542.34375 1697.539062 L 1504.882812 1762.421875 L 1467.382812 1827.34375 L 1429.921875 1892.265625 L 1392.421875 1957.1875 L 1354.960938 2022.109375 L 1317.460938 2087.03125 L 1280 2151.953125 L 1354.960938 2151.953125 L 1317.460938 2087.03125 L 1392.421875 2087.03125 L 1354.960938 2151.953125 L 1429.921875 2151.953125 L 1392.421875 2087.03125 L 1354.960938 2022.109375 L 1429.921875 2022.109375 " transform="matrix(0.1,0,0,-0.1,0,223)"/>
<path style="fill:none;stroke-width:7.496;stroke-linecap:round;stroke-linejoin:round;stroke:rgb(0%,0%,0%);stroke-opacity:1;stroke-miterlimit:10;" d="M 1429.921875 2022.109375 L 1392.421875 1957.1875 L 1467.382812 1957.1875 L 1429.921875 2022.109375 L 1504.882812 2022.109375 L 1467.382812 2087.03125 L 1429.921875 2151.953125 L 1504.882812 2151.953125 L 1467.382812 2087.03125 L 1542.34375 2087.03125 L 1504.882812 2151.953125 L 1579.84375 2151.953125 L 1542.34375 2087.03125 L 1504.882812 2022.109375 L 1467.382812 1957.1875 L 1429.921875 1892.265625 L 1504.882812 1892.265625 L 1467.382812 1827.34375 L 1542.34375 1827.34375 L 1504.882812 1892.265625 L 1579.84375 1892.265625 L 1542.34375 1827.34375 L 1504.882812 1762.421875 L 1579.84375 1762.421875 L 1542.34375 1697.539062 L 1617.304688 1697.539062 L 1579.84375 1762.421875 L 1654.804688 1762.421875 L 1617.304688 1827.34375 L 1579.84375 1892.265625 L 1654.804688 1892.265625 L 1617.304688 1827.34375 L 1692.265625 1827.34375 L 1654.804688 1892.265625 L 1729.765625 1892.265625 L 1692.265625 1957.1875 L 1654.804688 2022.109375 L 1617.304688 2087.03125 L 1579.84375 2151.953125 L 1654.804688 2151.953125 L 1617.304688 2087.03125 L 1692.265625 2087.03125 L 1654.804688 2151.953125 " transform="matrix(0.1,0,0,-0.1,0,223)"/>
<path style="fill:none;stroke-width:7.496;stroke-linecap:round;stroke-linejoin:round;stroke:rgb(0%,0%,0%);stroke-opacity:1;stroke-miterlimit:10;" d="M 1654.804688 2151.953125 L 1729.765625 2151.953125 L 1692.265625 2087.03125 L 1654.804688 2022.109375 L 1729.765625 2022.109375 L 1692.265625 1957.1875 L 1767.226562 1957.1875 L 1729.765625 2022.109375 L 1804.726562 2022.109375 L 1767.226562 2087.03125 L 1729.765625 2151.953125 L 1804.726562 2151.953125 L 1767.226562 2087.03125 L 1842.1875 2087.03125 L 1804.726562 2151.953125 L 1879.6875 2151.953125 L 1842.1875 2087.03125 L 1804.726562 2022.109375 L 1767.226562 1957.1875 L 1729.765625 1892.265625 L 1692.265625 1827.34375 L 1654.804688 1762.421875 L 1617.304688 1697.539062 L 1579.84375 1632.617188 L 1654.804688 1632.617188 L 1617.304688 1567.695312 L 1692.265625 1567.695312 L 1654.804688 1632.617188 L 1729.765625 1632.617188 L 1692.265625 1567.695312 L 1654.804688 1502.773438 L 1729.765625 1502.773438 L 1692.265625 1437.851562 L 1767.226562 1437.851562 L 1729.765625 1502.773438 L 1804.726562 1502.773438 L 1767.226562 1567.695312 L 1729.765625 1632.617188 L 1804.726562 1632.617188 L 1767.226562 1567.695312 L 1842.1875 1567.695312 L 1804.726562 1632.617188 L 1879.6875 1632.617188 " transform="matrix(0.1,0,0,-0.1,0,223)"/>
<path style="fill:none;stroke-width:7.496;stroke-linecap:round;stroke-linejoin:round;stroke:rgb(0%,0%,0%);stroke-opacity:1;stroke-miterlimit:10;" d="M 1879.6875 1632.617188 L 1842.1875 1567.695312 L 1804.726562 1502.773438 L 1767.226562 1437.851562 L 1729.765625 1372.929688 L 1804.726562 1372.929688 L 1767.226562 1308.007812 L 1842.1875 1308.007812 L 1804.726562 1372.929688 L 1879.6875 1372.929688 L 1842.1875 1308.007812 L 1804.726562 1243.085938 L 1879.6875 1243.085938 L 1842.1875 1178.164062 L 1917.148438 1178.164062 L 1879.6875 1243.085938 L 1954.648438 1243.085938 L 1917.148438 1308.007812 L 1879.6875 1372.929688 L 1954.648438 1372.929688 L 1917.148438 1308.007812 L 1992.109375 1308.007812 L 1954.648438 1372.929688 L 2029.609375 1372.929688 L 1992.109375 1437.851562 L 1954.648438 1502.773438 L 1917.148438 1567.695312 L 1879.6875 1632.617188 L 1954.648438 1632.617188 L 1917.148438 1567.695312 L 1992.109375 1567.695312 L 1954.648438 1632.617188 L 2029.609375 1632.617188 L 1992.109375 1567.695312 L 1954.648438 1502.773438 L 2029.609375 1502.773438 L 1992.109375 1437.851562 L 2067.070312 1437.851562 L 2029.609375 1502.773438 L 2104.570312 1502.773438 L 2067.070312 1567.695312 L 2029.609375 1632.617188 L 2104.570312 1632.617188 " transform="matrix(0.1,0,0,-0.1,0,223)"/>
<path style="fill:none;stroke-width:7.496;stroke-linecap:round;stroke-linejoin:round;stroke:rgb(0%,0%,0%);stroke-opacity:1;stroke-miterlimit:10;" d="M 2104.570312 1632.617188 L 2067.070312 1567.695312 L 2142.03125 1567.695312 L 2104.570312 1632.617188 L 2179.53125 1632.617188 L 2142.03125 1697.539062 L 2104.570312 1762.421875 L 2067.070312 1827.34375 L 2029.609375 1892.265625 L 1992.109375 1957.1875 L 1954.648438 2022.109375 L 1917.148438 2087.03125 L 1879.6875 2151.953125 L 1954.648438 2151.953125 L 1917.148438 2087.03125 L 1992.109375 2087.03125 L 1954.648438 2151.953125 L 2029.609375 2151.953125 L 1992.109375 2087.03125 L 1954.648438 2022.109375 L 2029.609375 2022.109375 L 1992.109375 1957.1875 L 2067.070312 1957.1875 L 2029.609375 2022.109375 L 2104.570312 2022.109375 L 2067.070312 2087.03125 L 2029.609375 2151.953125 L 2104.570312 2151.953125 L 2067.070312 2087.03125 L 2142.03125 2087.03125 L 2104.570312 2151.953125 L 2179.53125 2151.953125 L 2142.03125 2087.03125 L 2104.570312 2022.109375 L 2067.070312 1957.1875 L 2029.609375 1892.265625 L 2104.570312 1892.265625 L 2067.070312 1827.34375 L 2142.03125 1827.34375 L 2104.570312 1892.265625 L 2179.53125 1892.265625 L 2142.03125 1827.34375 L 2104.570312 1762.421875 " transform="matrix(0.1,0,0,-0.1,0,223)"/>
<path style="fill:none;stroke-width:7.496;stroke-linecap:round;stroke-linejoin:round;stroke:rgb(0%,0%,0%);stroke-opacity:1;stroke-miterlimit:10;" d="M 2104.570312 1762.421875 L 2179.53125 1762.421875 L 2142.03125 1697.539062 L 2216.992188 1697.539062 L 2179.53125 1762.421875 L 2254.492188 1762.421875 L 2216.992188 1827.34375 L 2179.53125 1892.265625 L 2254.492188 1892.265625 L 2216.992188 1827.34375 L 2291.953125 1827.34375 L 2254.492188 1892.265625 L 2329.453125 1892.265625 L 2291.953125 1957.1875 L 2254.492188 2022.109375 L 2216.992188 2087.03125 L 2179.53125 2151.953125 L 2254.492188 2151.953125 L 2216.992188 2087.03125 L 2291.953125 2087.03125 L 2254.492188 2151.953125 L 2329.453125 2151.953125 L 2291.953125 2087.03125 L 2254.492188 2022.109375 L 2329.453125 2022.109375 L 2291.953125 1957.1875 L 2366.914062 1957.1875 L 2329.453125 2022.109375 L 2404.414062 2022.109375 L 2366.914062 2087.03125 L 2329.453125 2151.953125 L 2404.414062 2151.953125 L 2366.914062 2087.03125 L 2441.875 2087.03125 L 2404.414062 2151.953125 L 2479.375 2151.953125 L 2441.875 2087.03125 L 2404.414062 2022.109375 L 2366.914062 1957.1875 L 2329.453125 1892.265625 L 2291.953125 1827.34375 L 2254.492188 1762.421875 L 2216.992188 1697.539062 " transform="matrix(0.1,0,0,-0.1,0,223)"/>
<path style="fill:none;stroke-width:7.496;stroke-linecap:round;stroke-linejoin:round;stroke:rgb(0%,0%,0%);stroke-opacity:1;stroke-miterlimit:10;" d="M 2216.992188 1697.539062 L 2179.53125 1632.617188 L 2142.03125 1567.695312 L 2104.570312 1502.773438 L 2067.070312 1437.851562 L 2029.609375 1372.929688 L 1992.109375 1308.007812 L 1954.648438 1243.085938 L 1917.148438 1178.164062 L 1879.6875 1113.28125 L 1842.1875 1048.359375 L 1804.726562 983.4375 L 1767.226562 918.515625 L 1729.765625 853.59375 L 1692.265625 788.671875 L 1654.804688 723.75 L 1617.304688 658.867188 L 1579.84375 593.945312 L 1542.34375 529.023438 L 1504.882812 464.101562 L 1467.382812 399.179688 L 1429.921875 334.257812 L 1392.421875 269.335938 L 1354.960938 204.414062 L 1317.460938 139.492188 L 1280 74.570312 L 1242.539062 139.492188 L 1205.039062 204.414062 L 1167.578125 269.335938 L 1130.078125 334.257812 L 1092.617188 399.179688 L 1055.117188 464.101562 L 1017.65625 529.023438 L 980.15625 593.945312 L 942.695312 658.867188 L 905.195312 723.75 L 867.734375 788.671875 L 830.234375 853.59375 L 792.773438 918.515625 L 755.273438 983.4375 L 717.8125 1048.359375 L 680.3125 1113.28125 L 642.851562 1178.164062 " transform="matrix(0.1,0,0,-0.1,0,223)"/>
<path style="fill:none;stroke-width:7.496;stroke-linecap:round;stroke-linejoin:round;stroke:rgb(0%,0%,0%);stroke-opacity:1;stroke-miterlimit:10;" d="M 642.851562 1178.164062 L 605.351562 1243.085938 L 567.890625 1308.007812 L 530.390625 1372.929688 L 492.929688 1437.851562 L 455.429688 1502.773438 L 417.96875 1567.695312 L 380.46875 1632.617188 L 343.007812 1697.539062 L 305.507812 1762.421875 L 268.046875 1827.34375 L 230.546875 1892.265625 L 193.085938 1957.1875 L 155.585938 2022.109375 L 118.125 2087.03125 L 80.625 2151.953125 " transform="matrix(0.1,0,0,-0.1,0,223)"/>
</g>
</svg>
