<?xml version="1.0" encoding="UTF-8"?>
<svg xmlns="http://www.w3.org/2000/svg" xmlns:xlink="http://www.w3.org/1999/xlink" width="166pt" height="159pt" viewBox="0 0 166 159" version="1.1">
<g id="surface1">
<path style="fill:none;stroke-width:7.507;stroke-linecap:round;stroke-linejoin:round;stroke:rgb(0%,0%,0%);stroke-opacity:1;stroke-miterlimit:10;" d="M 1205.351562 1443.125 L 1280.429688 1443.125 L 1242.890625 1378.085938 L 1317.96875 1378.085938 L 1280.429688 1313.085938 L 1242.890625 1378.085938 L 1205.351562 1313.085938 L 1280.429688 1313.085938 L 1242.890625 1248.085938 L 1317.96875 1248.085938 L 1280.429688 1183.046875 L 1242.890625 1248.085938 L 1205.351562 1183.046875 L 1167.8125 1248.085938 L 1242.890625 1248.085938 L 1205.351562 1313.085938 L 1167.8125 1248.085938 L 1130.273438 1313.085938 L 1092.734375 1248.085938 L 1167.8125 1248.085938 L 1130.273438 1183.046875 L 1205.351562 1183.046875 L 1167.8125 1118.046875 L 1130.273438 1183.046875 L 1092.734375 1118.046875 L 1167.8125 1118.046875 L 1130.273438 1053.046875 L 1205.351562 1053.046875 L 1167.8125 988.007812 L 1130.273438 1053.046875 L 1092.734375 988.007812 L 1055.195312 1053.046875 L 1130.273438 1053.046875 L 1092.734375 1118.046875 L 1055.195312 1053.046875 L 1017.695312 1118.046875 L 980.15625 1053.046875 L 942.617188 1118.046875 L 1017.695312 1118.046875 L 980.15625 1183.046875 L 1055.195312 1183.046875 L 1017.695312 1118.046875 L 1092.734375 1118.046875 " transform="matrix(0.1,0,0,-0.1,0,159)"/>
<path style="fill:none;stroke-width:7.507;stroke-linecap:round;stroke-linejoin:round;stroke:rgb(0%,0%,0%);stroke-opacity:1;stroke-miterlimit:10;" d="M 1092.734375 1118.046875 L 1055.195312 1183.046875 L 1130.273438 1183.046875 L 1092.734375 1248.085938 L 1055.195312 1183.046875 L 1017.695312 1248.085938 L 980.15625 1183.046875 L 942.617188 1248.085938 L 1017.695312 1248.085938 L 980.15625 1313.085938 L 942.617188 1248.085938 L 905.078125 1313.085938 L 867.539062 1248.085938 L 942.617188 1248.085938 L 905.078125 1183.046875 L 980.15625 1183.046875 L 942.617188 1118.046875 L 905.078125 1183.046875 L 867.539062 1118.046875 L 942.617188 1118.046875 L 905.078125 1053.046875 L 980.15625 1053.046875 L 942.617188 988.007812 L 905.078125 1053.046875 L 867.539062 988.007812 L 830 1053.046875 L 905.078125 1053.046875 L 867.539062 1118.046875 L 830 1053.046875 L 792.460938 1118.046875 L 754.921875 1053.046875 L 830 1053.046875 L 792.460938 988.007812 L 867.539062 988.007812 L 830 923.007812 L 792.460938 988.007812 L 754.921875 923.007812 L 830 923.007812 L 792.460938 858.007812 L 867.539062 858.007812 L 830 792.96875 L 792.460938 858.007812 L 754.921875 792.96875 " transform="matrix(0.1,0,0,-0.1,0,159)"/>
<path style="fill:none;stroke-width:7.507;stroke-linecap:round;stroke-linejoin:round;stroke:rgb(0%,0%,0%);stroke-opacity:1;stroke-miterlimit:10;" d="M 754.921875 792.96875 L 717.382812 858.007812 L 792.460938 858.007812 L 754.921875 923.007812 L 717.382812 858.007812 L 679.84375 923.007812 L 642.304688 858.007812 L 604.804688 923.007812 L 679.84375 923.007812 L 642.304688 988.007812 L 717.382812 988.007812 L 679.84375 923.007812 L 754.921875 923.007812 L 717.382812 988.007812 L 792.460938 988.007812 L 754.921875 1053.046875 L 717.382812 988.007812 L 679.84375 1053.046875 L 642.304688 988.007812 L 604.804688 1053.046875 L 679.84375 1053.046875 L 642.304688 1118.046875 L 604.804688 1053.046875 L 567.265625 1118.046875 L 529.726562 1053.046875 L 492.1875 1118.046875 L 567.265625 1118.046875 L 529.726562 1183.046875 L 604.804688 1183.046875 L 567.265625 1118.046875 L 642.304688 1118.046875 L 604.804688 1183.046875 L 679.84375 1183.046875 L 642.304688 1248.085938 L 717.382812 1248.085938 L 679.84375 1183.046875 L 754.921875 1183.046875 L 717.382812 1118.046875 L 679.84375 1183.046875 L 642.304688 1118.046875 L 717.382812 1118.046875 L 679.84375 1053.046875 L 754.921875 1053.046875 " transform="matrix(0.1,0,0,-0.1,0,159)"/>
<path style="fill:none;stroke-width:7.507;stroke-linecap:round;stroke-linejoin:round;stroke:rgb(0%,0%,0%);stroke-opacity:1;stroke-miterlimit:10;" d="M 754.921875 1053.046875 L 717.382812 1118.046875 L 792.460938 1118.046875 L 754.921875 1183.046875 L 830 1183.046875 L 792.460938 1118.046875 L 867.539062 1118.046875 L 830 1183.046875 L 905.078125 1183.046875 L 867.539062 1248.085938 L 830 1183.046875 L 792.460938 1248.085938 L 754.921875 1183.046875 L 717.382812 1248.085938 L 792.460938 1248.085938 L 754.921875 1313.085938 L 717.382812 1248.085938 L 679.84375 1313.085938 L 642.304688 1248.085938 L 604.804688 1313.085938 L 679.84375 1313.085938 L 642.304688 1378.085938 L 717.382812 1378.085938 L 679.84375 1313.085938 L 754.921875 1313.085938 L 717.382812 1378.085938 L 792.460938 1378.085938 L 754.921875 1443.125 L 717.382812 1378.085938 L 679.84375 1443.125 L 642.304688 1378.085938 L 604.804688 1443.125 L 679.84375 1443.125 L 642.304688 1508.125 L 604.804688 1443.125 L 567.265625 1508.125 L 529.726562 1443.125 L 604.804688 1443.125 L 567.265625 1378.085938 L 642.304688 1378.085938 L 604.804688 1313.085938 L 567.265625 1378.085938 L 529.726562 1313.085938 " transform="matrix(0.1,0,0,-0.1,0,159)"/>
<path style="fill:none;stroke-width:7.507;stroke-linecap:round;stroke-linejoin:round;stroke:rgb(0%,0%,0%);stroke-opacity:1;stroke-miterlimit:10;" d="M 529.726562 1313.085938 L 604.804688 1313.085938 L 567.265625 1248.085938 L 642.304688 1248.085938 L 604.804688 1183.046875 L 567.265625 1248.085938 L 529.726562 1183.046875 L 492.1875 1248.085938 L 567.265625 1248.085938 L 529.726562 1313.085938 L 492.1875 1248.085938 L 454.648438 1313.085938 L 417.109375 1248.085938 L 492.1875 1248.085938 L 454.648438 1183.046875 L 529.726562 1183.046875 L 492.1875 1118.046875 L 454.648438 1183.046875 L 417.109375 1118.046875 L 492.1875 1118.046875 L 454.648438 1053.046875 L 529.726562 1053.046875 L 492.1875 988.007812 L 454.648438 1053.046875 L 417.109375 988.007812 L 379.570312 1053.046875 L 454.648438 1053.046875 L 417.109375 1118.046875 L 379.570312 1053.046875 L 342.03125 1118.046875 L 304.53125 1053.046875 L 266.992188 1118.046875 L 342.03125 1118.046875 L 304.53125 1183.046875 L 379.570312 1183.046875 L 342.03125 1118.046875 L 417.109375 1118.046875 L 379.570312 1183.046875 L 454.648438 1183.046875 L 417.109375 1248.085938 L 379.570312 1183.046875 L 342.03125 1248.085938 L 304.53125 1183.046875 " transform="matrix(0.1,0,0,-0.1,0,159)"/>
<path style="fill:none;stroke-width:7.507;stroke-linecap:round;stroke-linejoin:round;stroke:rgb(0%,0%,0%);stroke-opacity:1;stroke-miterlimit:10;" d="M 304.53125 1183.046875 L 266.992188 1248.085938 L 342.03125 1248.085938 L 304.53125 1313.085938 L 266.992188 1248.085938 L 229.453125 1313.085938 L 191.914062 1248.085938 L 266.992188 1248.085938 L 229.453125 1183.046875 L 304.53125 1183.046875 L 266.992188 1118.046875 L 229.453125 1183.046875 L 191.914062 1118.046875 L 266.992188 1118.046875 L 229.453125 1053.046875 L 304.53125 1053.046875 L 266.992188 988.007812 L 229.453125 1053.046875 L 191.914062 988.007812 L 154.375 1053.046875 L 229.453125 1053.046875 L 191.914062 1118.046875 L 154.375 1053.046875 L 116.835938 1118.046875 L 79.296875 1053.046875 L 154.375 1053.046875 L 116.835938 988.007812 L 191.914062 988.007812 L 154.375 923.007812 L 116.835938 988.007812 L 79.296875 923.007812 L 154.375 923.007812 L 116.835938 858.007812 L 191.914062 858.007812 L 154.375 923.007812 L 229.453125 923.007812 L 191.914062 988.007812 L 266.992188 988.007812 L 229.453125 923.007812 L 304.53125 923.007812 L 266.992188 988.007812 L 342.03125 988.007812 L 304.53125 1053.046875 " transform="matrix(0.1,0,0,-0.1,0,159)"/>
<path style="fill:none;stroke-width:7.507;stroke-linecap:round;stroke-linejoin:round;stroke:rgb(0%,0%,0%);stroke-opacity:1;stroke-miterlimit:10;" d="M 304.53125 1053.046875 L 379.570312 1053.046875 L 342.03125 988.007812 L 417.109375 988.007812 L 379.570312 923.007812 L 342.03125 988.007812 L 304.53125 923.007812 L 379.570312 923.007812 L 342.03125 858.007812 L 417.109375 858.007812 L 379.570312 923.007812 L 454.648438 923.007812 L 417.109375 988.007812 L 492.1875 988.007812 L 454.648438 923.007812 L 529.726562 923.007812 L 492.1875 988.007812 L 567.265625 988.007812 L 529.726562 1053.046875 L 604.804688 1053.046875 L 567.265625 988.007812 L 642.304688 988.007812 L 604.804688 923.007812 L 567.265625 988.007812 L 529.726562 923.007812 L 604.804688 923.007812 L 567.265625 858.007812 L 642.304688 858.007812 L 604.804688 792.96875 L 567.265625 858.007812 L 529.726562 792.96875 L 492.1875 858.007812 L 567.265625 858.007812 L 529.726562 923.007812 L 492.1875 858.007812 L 454.648438 923.007812 L 417.109375 858.007812 L 492.1875 858.007812 L 454.648438 792.96875 L 529.726562 792.96875 L 492.1875 727.96875 L 454.648438 792.96875 L 417.109375 727.96875 " transform="matrix(0.1,0,0,-0.1,0,159)"/>
<path style="fill:none;stroke-width:7.507;stroke-linecap:round;stroke-linejoin:round;stroke:rgb(0%,0%,0%);stroke-opacity:1;stroke-miterlimit:10;" d="M 417.109375 727.96875 L 492.1875 727.96875 L 454.648438 662.96875 L 529.726562 662.96875 L 492.1875 727.96875 L 567.265625 727.96875 L 529.726562 792.96875 L 604.804688 792.96875 L 567.265625 727.96875 L 642.304688 727.96875 L 604.804688 792.96875 L 679.84375 792.96875 L 642.304688 858.007812 L 717.382812 858.007812 L 679.84375 792.96875 L 754.921875 792.96875 L 717.382812 727.96875 L 679.84375 792.96875 L 642.304688 727.96875 L 717.382812 727.96875 L 679.84375 662.96875 L 754.921875 662.96875 L 717.382812 727.96875 L 792.460938 727.96875 L 754.921875 792.96875 L 830 792.96875 L 792.460938 727.96875 L 867.539062 727.96875 L 830 792.96875 L 905.078125 792.96875 L 867.539062 858.007812 L 942.617188 858.007812 L 905.078125 792.96875 L 980.15625 792.96875 L 942.617188 727.96875 L 905.078125 792.96875 L 867.539062 727.96875 L 942.617188 727.96875 L 905.078125 662.96875 L 980.15625 662.96875 L 942.617188 597.929688 L 905.078125 662.96875 L 867.539062 597.929688 " transform="matrix(0.1,0,0,-0.1,0,159)"/>
<path style="fill:none;stroke-width:7.507;stroke-linecap:round;stroke-linejoin:round;stroke:rgb(0%,0%,0%);stroke-opacity:1;stroke-miterlimit:10;" d="M 867.539062 597.929688 L 830 662.96875 L 905.078125 662.96875 L 867.539062 727.96875 L 830 662.96875 L 792.460938 727.96875 L 754.921875 662.96875 L 830 662.96875 L 792.460938 597.929688 L 867.539062 597.929688 L 830 532.929688 L 792.460938 597.929688 L 754.921875 532.929688 L 830 532.929688 L 792.460938 467.929688 L 867.539062 467.929688 L 830 402.890625 L 792.460938 467.929688 L 754.921875 402.890625 L 717.382812 467.929688 L 792.460938 467.929688 L 754.921875 532.929688 L 717.382812 467.929688 L 679.84375 532.929688 L 642.304688 467.929688 L 604.804688 532.929688 L 679.84375 532.929688 L 642.304688 597.929688 L 717.382812 597.929688 L 679.84375 532.929688 L 754.921875 532.929688 L 717.382812 597.929688 L 792.460938 597.929688 L 754.921875 662.96875 L 717.382812 597.929688 L 679.84375 662.96875 L 642.304688 597.929688 L 604.804688 662.96875 L 679.84375 662.96875 L 642.304688 727.96875 L 604.804688 662.96875 L 567.265625 727.96875 L 529.726562 662.96875 " transform="matrix(0.1,0,0,-0.1,0,159)"/>
<path style="fill:none;stroke-width:7.507;stroke-linecap:round;stroke-linejoin:round;stroke:rgb(0%,0%,0%);stroke-opacity:1;stroke-miterlimit:10;" d="M 529.726562 662.96875 L 604.804688 662.96875 L 567.265625 597.929688 L 642.304688 597.929688 L 604.804688 532.929688 L 567.265625 597.929688 L 529.726562 532.929688 L 604.804688 532.929688 L 567.265625 467.929688 L 642.304688 467.929688 L 604.804688 402.890625 L 567.265625 467.929688 L 529.726562 402.890625 L 492.1875 467.929688 L 567.265625 467.929688 L 529.726562 532.929688 L 492.1875 467.929688 L 454.648438 532.929688 L 417.109375 467.929688 L 492.1875 467.929688 L 454.648438 402.890625 L 529.726562 402.890625 L 492.1875 337.890625 L 454.648438 402.890625 L 417.109375 337.890625 L 492.1875 337.890625 L 454.648438 272.890625 L 529.726562 272.890625 L 492.1875 337.890625 L 567.265625 337.890625 L 529.726562 402.890625 L 604.804688 402.890625 L 567.265625 337.890625 L 642.304688 337.890625 L 604.804688 402.890625 L 679.84375 402.890625 L 642.304688 467.929688 L 717.382812 467.929688 L 679.84375 402.890625 L 754.921875 402.890625 L 717.382812 337.890625 L 679.84375 402.890625 L 642.304688 337.890625 " transform="matrix(0.1,0,0,-0.1,0,159)"/>
<path style="fill:none;stroke-width:7.507;stroke-linecap:round;stroke-linejoin:round;stroke:rgb(0%,0%,0%);stroke-opacity:1;stroke-miterlimit:10;" d="M 642.304688 337.890625 L 717.382812 337.890625 L 679.84375 272.890625 L 754.921875 272.890625 L 717.382812 337.890625 L 792.460938 337.890625 L 754.921875 402.890625 L 830 402.890625 L 792.460938 337.890625 L 867.539062 337.890625 L 830 402.890625 L 905.078125 402.890625 L 867.539062 467.929688 L 942.617188 467.929688 L 905.078125 402.890625 L 980.15625 402.890625 L 942.617188 337.890625 L 905.078125 402.890625 L 867.539062 337.890625 L 942.617188 337.890625 L 905.078125 272.890625 L 980.15625 272.890625 L 942.617188 207.851562 L 905.078125 272.890625 L 867.539062 207.851562 L 830 272.890625 L 905.078125 272.890625 L 867.539062 337.890625 L 830 272.890625 L 792.460938 337.890625 L 754.921875 272.890625 L 830 272.890625 L 792.460938 207.851562 L 867.539062 207.851562 L 830 142.851562 L 792.460938 207.851562 L 754.921875 142.851562 L 830 142.851562 L 792.460938 77.851562 L 867.539062 77.851562 L 830 142.851562 L 905.078125 142.851562 L 867.539062 207.851562 " transform="matrix(0.1,0,0,-0.1,0,159)"/>
<path style="fill:none;stroke-width:7.507;stroke-linecap:round;stroke-linejoin:round;stroke:rgb(0%,0%,0%);stroke-opacity:1;stroke-miterlimit:10;" d="M 867.539062 207.851562 L 942.617188 207.851562 L 905.078125 142.851562 L 980.15625 142.851562 L 942.617188 207.851562 L 1017.695312 207.851562 L 980.15625 272.890625 L 1055.195312 272.890625 L 1017.695312 207.851562 L 1092.734375 207.851562 L 1055.195312 142.851562 L 1017.695312 207.851562 L 980.15625 142.851562 L 1055.195312 142.851562 L 1017.695312 77.851562 L 1092.734375 77.851562 L 1055.195312 142.851562 L 1130.273438 142.851562 L 1092.734375 207.851562 L 1167.8125 207.851562 L 1130.273438 142.851562 L 1205.351562 142.851562 L 1167.8125 207.851562 L 1242.890625 207.851562 L 1205.351562 272.890625 L 1167.8125 207.851562 L 1130.273438 272.890625 L 1092.734375 207.851562 L 1055.195312 272.890625 L 1130.273438 272.890625 L 1092.734375 337.890625 L 1055.195312 272.890625 L 1017.695312 337.890625 L 980.15625 272.890625 L 942.617188 337.890625 L 1017.695312 337.890625 L 980.15625 402.890625 L 1055.195312 402.890625 L 1017.695312 337.890625 L 1092.734375 337.890625 L 1055.195312 402.890625 L 1130.273438 402.890625 L 1092.734375 467.929688 " transform="matrix(0.1,0,0,-0.1,0,159)"/>
<path style="fill:none;stroke-width:7.507;stroke-linecap:round;stroke-linejoin:round;stroke:rgb(0%,0%,0%);stroke-opacity:1;stroke-miterlimit:10;" d="M 1092.734375 467.929688 L 1055.195312 402.890625 L 1017.695312 467.929688 L 980.15625 402.890625 L 942.617188 467.929688 L 1017.695312 467.929688 L 980.15625 532.929688 L 942.617188 467.929688 L 905.078125 532.929688 L 867.539062 467.929688 L 830 532.929688 L 905.078125 532.929688 L 867.539062 597.929688 L 942.617188 597.929688 L 905.078125 532.929688 L 980.15625 532.929688 L 942.617188 597.929688 L 1017.695312 597.929688 L 980.15625 662.96875 L 1055.195312 662.96875 L 1017.695312 597.929688 L 1092.734375 597.929688 L 1055.195312 532.929688 L 1017.695312 597.929688 L 980.15625 532.929688 L 1055.195312 532.929688 L 1017.695312 467.929688 L 1092.734375 467.929688 L 1055.195312 532.929688 L 1130.273438 532.929688 L 1092.734375 597.929688 L 1167.8125 597.929688 L 1130.273438 532.929688 L 1205.351562 532.929688 L 1167.8125 597.929688 L 1242.890625 597.929688 L 1205.351562 662.96875 L 1167.8125 597.929688 L 1130.273438 662.96875 L 1092.734375 597.929688 L 1055.195312 662.96875 L 1130.273438 662.96875 L 1092.734375 727.96875 " transform="matrix(0.1,0,0,-0.1,0,159)"/>
<path style="fill:none;stroke-width:7.507;stroke-linecap:round;stroke-linejoin:round;stroke:rgb(0%,0%,0%);stroke-opacity:1;stroke-miterlimit:10;" d="M 1092.734375 727.96875 L 1055.195312 662.96875 L 1017.695312 727.96875 L 980.15625 662.96875 L 942.617188 727.96875 L 1017.695312 727.96875 L 980.15625 792.96875 L 1055.195312 792.96875 L 1017.695312 727.96875 L 1092.734375 727.96875 L 1055.195312 792.96875 L 1130.273438 792.96875 L 1092.734375 858.007812 L 1055.195312 792.96875 L 1017.695312 858.007812 L 980.15625 792.96875 L 942.617188 858.007812 L 1017.695312 858.007812 L 980.15625 923.007812 L 942.617188 858.007812 L 905.078125 923.007812 L 867.539062 858.007812 L 830 923.007812 L 905.078125 923.007812 L 867.539062 988.007812 L 942.617188 988.007812 L 905.078125 923.007812 L 980.15625 923.007812 L 942.617188 988.007812 L 1017.695312 988.007812 L 980.15625 1053.046875 L 1055.195312 1053.046875 L 1017.695312 988.007812 L 1092.734375 988.007812 L 1055.195312 923.007812 L 1017.695312 988.007812 L 980.15625 923.007812 L 1055.195312 923.007812 L 1017.695312 858.007812 L 1092.734375 858.007812 L 1055.195312 923.007812 L 1130.273438 923.007812 L 1092.734375 988.007812 " transform="matrix(0.1,0,0,-0.1,0,159)"/>
<path style="fill:none;stroke-width:7.507;stroke-linecap:round;stroke-linejoin:round;stroke:rgb(0%,0%,0%);stroke-opacity:1;stroke-miterlimit:10;" d="M 1092.734375 988.007812 L 1167.8125 988.007812 L 1130.273438 923.007812 L 1205.351562 923.007812 L 1167.8125 988.007812 L 1242.890625 988.007812 L 1205.351562 1053.046875 L 1280.429688 1053.046875 L 1242.890625 988.007812 L 1317.96875 988.007812 L 1280.429688 923.007812 L 1242.890625 988.007812 L 1205.351562 923.007812 L 1280.429688 923.007812 L 1242.890625 858.007812 L 1317.96875 858.007812 L 1280.429688 792.96875 L 1242.890625 858.007812 L 1205.351562 792.96875 L 1167.8125 858.007812 L 1242.890625 858.007812 L 1205.351562 923.007812 L 1167.8125 858.007812 L 1130.273438 923.007812 L 1092.734375 858.007812 L 1167.8125 858.007812 L 1130.273438 792.96875 L 1205.351562 792.96875 L 1167.8125 727.96875 L 1130.273438 792.96875 L 1092.734375 727.96875 L 1167.8125 727.96875 L 1130.273438 662.96875 L 1205.351562 662.96875 L 1167.8125 727.96875 L 1242.890625 727.96875 L 1205.351562 792.96875 L 1280.429688 792.96875 L 1242.890625 727.96875 L 1317.96875 727.96875 L 1280.429688 792.96875 L 1355.507812 792.96875 L 1317.96875 858.007812 " transform="matrix(0.1,0,0,-0.1,0,159)"/>
<path style="fill:none;stroke-width:7.507;stroke-linecap:round;stroke-linejoin:round;stroke:rgb(0%,0%,0%);stroke-opacity:1;stroke-miterlimit:10;" d="M 1317.96875 858.007812 L 1393.007812 858.007812 L 1355.507812 792.96875 L 1430.546875 792.96875 L 1393.007812 727.96875 L 1355.507812 792.96875 L 1317.96875 727.96875 L 1393.007812 727.96875 L 1355.507812 662.96875 L 1430.546875 662.96875 L 1393.007812 727.96875 L 1468.085938 727.96875 L 1430.546875 792.96875 L 1505.625 792.96875 L 1468.085938 727.96875 L 1543.164062 727.96875 L 1505.625 792.96875 L 1580.703125 792.96875 L 1543.164062 858.007812 L 1505.625 792.96875 L 1468.085938 858.007812 L 1430.546875 792.96875 L 1393.007812 858.007812 L 1468.085938 858.007812 L 1430.546875 923.007812 L 1393.007812 858.007812 L 1355.507812 923.007812 L 1317.96875 858.007812 L 1280.429688 923.007812 L 1355.507812 923.007812 L 1317.96875 988.007812 L 1393.007812 988.007812 L 1355.507812 923.007812 L 1430.546875 923.007812 L 1393.007812 988.007812 L 1468.085938 988.007812 L 1430.546875 1053.046875 L 1393.007812 988.007812 L 1355.507812 1053.046875 L 1317.96875 988.007812 L 1280.429688 1053.046875 L 1355.507812 1053.046875 L 1317.96875 1118.046875 " transform="matrix(0.1,0,0,-0.1,0,159)"/>
<path style="fill:none;stroke-width:7.507;stroke-linecap:round;stroke-linejoin:round;stroke:rgb(0%,0%,0%);stroke-opacity:1;stroke-miterlimit:10;" d="M 1317.96875 1118.046875 L 1280.429688 1053.046875 L 1242.890625 1118.046875 L 1205.351562 1053.046875 L 1167.8125 1118.046875 L 1242.890625 1118.046875 L 1205.351562 1183.046875 L 1280.429688 1183.046875 L 1242.890625 1118.046875 L 1317.96875 1118.046875 L 1280.429688 1183.046875 L 1355.507812 1183.046875 L 1317.96875 1248.085938 L 1393.007812 1248.085938 L 1355.507812 1183.046875 L 1430.546875 1183.046875 L 1393.007812 1118.046875 L 1355.507812 1183.046875 L 1317.96875 1118.046875 L 1393.007812 1118.046875 L 1355.507812 1053.046875 L 1430.546875 1053.046875 L 1393.007812 1118.046875 L 1468.085938 1118.046875 L 1430.546875 1183.046875 L 1505.625 1183.046875 L 1468.085938 1118.046875 L 1543.164062 1118.046875 L 1505.625 1183.046875 L 1580.703125 1183.046875 L 1543.164062 1248.085938 L 1505.625 1183.046875 L 1468.085938 1248.085938 L 1430.546875 1183.046875 L 1393.007812 1248.085938 L 1468.085938 1248.085938 L 1430.546875 1313.085938 L 1393.007812 1248.085938 L 1355.507812 1313.085938 L 1317.96875 1248.085938 L 1280.429688 1313.085938 L 1355.507812 1313.085938 L 1317.96875 1378.085938 " transform="matrix(0.1,0,0,-0.1,0,159)"/>
<path style="fill:none;stroke-width:7.507;stroke-linecap:round;stroke-linejoin:round;stroke:rgb(0%,0%,0%);stroke-opacity:1;stroke-miterlimit:10;" d="M 1317.96875 1378.085938 L 1393.007812 1378.085938 L 1355.507812 1313.085938 L 1430.546875 1313.085938 L 1393.007812 1378.085938 L 1468.085938 1378.085938 L 1430.546875 1443.125 L 1393.007812 1378.085938 L 1355.507812 1443.125 L 1317.96875 1378.085938 L 1280.429688 1443.125 L 1355.507812 1443.125 L 1317.96875 1508.125 L 1280.429688 1443.125 L 1242.890625 1508.125 L 1205.351562 1443.125 " transform="matrix(0.1,0,0,-0.1,0,159)"/>
</g>
</svg>
